<?xml version="1.0" standalone="no"?>
<!DOCTYPE svg PUBLIC "-//W3C//DTD SVG 20010904//EN"
 "http://www.w3.org/TR/2001/REC-SVG-20010904/DTD/svg10.dtd">
<svg version="1.0" xmlns="http://www.w3.org/2000/svg"
 width="216.000000pt" height="216.000000pt" viewBox="0 0 216.000000 216.000000"
 preserveAspectRatio="xMidYMid meet">
<metadata>
Created by potrace 1.14, written by Peter Selinger 2001-2017
</metadata>
<g transform="translate(0.000000,216.000000) scale(0.100000,-0.100000)"
fill="#000000" stroke="none">
<path d="M117 2140 c-49 -24 -94 -75 -107 -120 -15 -54 -13 -1831 2 -1882 15
-51 77 -114 125 -127 57 -16 1833 -15 1885 1 51 15 114 77 127 125 16 55 15
1818 0 1879 -14 56 -74 119 -126 133 -25 7 -343 11 -953 10 -878 0 -917 -1
-953 -19z"/>
</g>
</svg>
